<svg xmlns="http://www.w3.org/2000/svg" xmlns:xlink="http://www.w3.org/1999/xlink" width="200" zoomAndPan="magnify" viewBox="0 0 150 44.999999" height="60" preserveAspectRatio="xMidYMid meet" version="1.0"><defs><g/></defs><rect x="-15" width="180" fill="#ffffff" y="-4.5" height="53.999999" fill-opacity="1"/><rect x="-15" width="180" fill="#ffffff" y="-4.5" height="53.999999" fill-opacity="1"/><rect x="-15" width="180" fill="#ffffff" y="-4.5" height="53.999999" fill-opacity="1"/><g fill="#000000" fill-opacity="1"><g transform="translate(30.065922, 27.192191)"><g><path d="M 8.382812 -4.804688 L 4.832031 -4.804688 L 4.832031 -3.316406 L 6.644531 -3.316406 C 6.519531 -2.015625 5.832031 -1.539062 4.617188 -1.539062 C 3.191406 -1.539062 2.464844 -2.664062 2.464844 -4.378906 C 2.464844 -6.132812 3.214844 -7.21875 4.542969 -7.21875 C 5.40625 -7.21875 5.867188 -6.855469 6.207031 -6.15625 L 8.097656 -6.15625 C 7.796875 -7.957031 6.246094 -8.871094 4.503906 -8.871094 C 2.128906 -8.871094 0.464844 -7.28125 0.464844 -4.378906 C 0.464844 -1.488281 2.101562 0.113281 4.617188 0.113281 C 7.28125 0.113281 8.382812 -1.390625 8.382812 -4.21875 Z M 8.382812 -4.804688 "/></g></g></g><g fill="#000000" fill-opacity="1"><g transform="translate(38.975089, 27.192191)"><g><path d="M 4.417969 -6.570312 C 3.304688 -6.570312 2.664062 -5.945312 2.476562 -5.066406 L 2.476562 -6.507812 L 0.652344 -6.507812 L 0.652344 0 L 2.476562 0 L 2.476562 -3.464844 C 2.628906 -4.367188 3.214844 -4.929688 4.554688 -4.929688 C 4.640625 -4.929688 4.730469 -4.929688 4.980469 -4.917969 L 4.980469 -6.519531 C 4.730469 -6.570312 4.554688 -6.570312 4.417969 -6.570312 Z M 4.417969 -6.570312 "/></g></g></g><g fill="#000000" fill-opacity="1"><g transform="translate(44.230496, 27.192191)"><g><path d="M 3.566406 -6.570312 C 2.191406 -6.570312 0.335938 -5.65625 0.335938 -3.226562 C 0.335938 -0.824219 2.191406 0.0859375 3.566406 0.0859375 C 4.941406 0.0859375 6.792969 -0.824219 6.792969 -3.226562 C 6.792969 -5.65625 4.941406 -6.570312 3.566406 -6.570312 Z M 5.042969 -3.226562 C 5.042969 -1.953125 4.34375 -1.390625 3.566406 -1.390625 C 2.789062 -1.390625 2.089844 -1.953125 2.089844 -3.226562 C 2.089844 -4.566406 2.789062 -5.09375 3.566406 -5.09375 C 4.34375 -5.09375 5.042969 -4.566406 5.042969 -3.226562 Z M 5.042969 -3.226562 "/></g></g></g><g fill="#000000" fill-opacity="1"><g transform="translate(51.362835, 27.192191)"><g><path d="M 9.972656 -6.507812 L 8.132812 -6.507812 L 7.109375 -2.316406 L 5.820312 -6.507812 L 4.367188 -6.507812 L 3.078125 -2.316406 L 2.050781 -6.507812 L 0.210938 -6.507812 L 2.050781 0 L 3.617188 0 L 5.09375 -4.34375 L 6.582031 0 L 8.132812 0 Z M 9.972656 -6.507812 "/></g></g></g><g fill="#000000" fill-opacity="1"><g transform="translate(61.548314, 27.192191)"><g><path d="M 3.753906 -1.339844 C 3.226562 -1.339844 3.054688 -1.601562 3.054688 -2.003906 L 3.054688 -5.082031 L 4.367188 -5.082031 L 4.367188 -6.507812 L 3.054688 -6.507812 L 3.054688 -8.132812 L 1.226562 -8.132812 L 1.226562 -6.507812 L 0.148438 -6.507812 L 0.148438 -5.082031 L 1.226562 -5.082031 L 1.226562 -1.800781 C 1.226562 -0.238281 2.113281 0.0742188 3.242188 0.0742188 C 3.730469 0.0742188 4.15625 0 4.429688 -0.113281 L 4.429688 -1.425781 C 4.15625 -1.363281 3.941406 -1.339844 3.753906 -1.339844 Z M 3.753906 -1.339844 "/></g></g></g><g fill="#000000" fill-opacity="1"><g transform="translate(66.315717, 27.192191)"><g><path d="M 4.566406 -6.570312 C 3.367188 -6.570312 2.664062 -5.667969 2.476562 -5.21875 L 2.476562 -8.835938 L 0.652344 -8.835938 L 0.652344 0 L 2.476562 0 L 2.476562 -3.839844 C 2.539062 -4.253906 2.976562 -5.054688 3.890625 -5.054688 C 4.542969 -5.054688 5.054688 -4.71875 5.054688 -3.816406 L 5.054688 0 L 6.882812 0 L 6.882812 -3.917969 C 6.882812 -5.894531 5.90625 -6.570312 4.566406 -6.570312 Z M 4.566406 -6.570312 "/></g></g></g><g fill="#000000" fill-opacity="1"><g transform="translate(73.848466, 27.192191)"><g><path d="M 7.234375 -8.757812 L 0.273438 -8.757812 L 0.273438 -7.109375 L 2.804688 -7.109375 L 2.804688 0 L 4.71875 0 L 4.71875 -7.109375 L 7.234375 -7.109375 Z M 7.234375 -8.757812 "/></g></g></g><g fill="#000000" fill-opacity="1"><g transform="translate(81.356192, 27.192191)"><g><path d="M 4.417969 -6.570312 C 3.304688 -6.570312 2.664062 -5.945312 2.476562 -5.066406 L 2.476562 -6.507812 L 0.652344 -6.507812 L 0.652344 0 L 2.476562 0 L 2.476562 -3.464844 C 2.628906 -4.367188 3.214844 -4.929688 4.554688 -4.929688 C 4.640625 -4.929688 4.730469 -4.929688 4.980469 -4.917969 L 4.980469 -6.519531 C 4.730469 -6.570312 4.554688 -6.570312 4.417969 -6.570312 Z M 4.417969 -6.570312 "/></g></g></g><g fill="#000000" fill-opacity="1"><g transform="translate(86.611599, 27.192191)"><g><path d="M 6.320312 -1.6875 L 6.320312 -3.839844 C 6.320312 -5.757812 5.53125 -6.570312 3.480469 -6.570312 C 1.75 -6.570312 0.824219 -5.867188 0.699219 -4.503906 L 2.425781 -4.503906 C 2.515625 -5.082031 2.953125 -5.230469 3.464844 -5.230469 C 3.917969 -5.230469 4.492188 -5.128906 4.492188 -4.28125 L 4.492188 -4.265625 C 4.128906 -4.054688 3.453125 -3.992188 2.742188 -3.855469 C 1.550781 -3.640625 0.335938 -3.390625 0.335938 -1.914062 C 0.335938 -0.476562 1.414062 0.0859375 2.554688 0.0859375 C 4.078125 0.0859375 4.59375 -0.875 4.691406 -1.039062 L 4.691406 -0.988281 C 4.691406 -0.289062 5.332031 0.0507812 6.132812 0.0507812 C 6.394531 0.0507812 6.570312 0.0390625 6.792969 -0.0625 L 6.792969 -1.101562 C 6.496094 -1.125 6.320312 -1.300781 6.320312 -1.6875 Z M 4.492188 -2.050781 C 4.367188 -1.828125 3.917969 -1.214844 3.054688 -1.214844 C 2.425781 -1.214844 2.164062 -1.589844 2.164062 -1.988281 C 2.164062 -2.402344 2.402344 -2.640625 3.015625 -2.789062 C 3.605469 -2.914062 4.03125 -2.964844 4.492188 -3.203125 Z M 4.492188 -2.050781 "/></g></g></g><g fill="#000000" fill-opacity="1"><g transform="translate(93.618807, 27.192191)"><g><path d="M 3.554688 -1.390625 C 2.652344 -1.390625 2.101562 -2.027344 2.101562 -3.242188 C 2.101562 -4.429688 2.640625 -5.09375 3.542969 -5.09375 C 4.292969 -5.09375 4.566406 -4.730469 4.691406 -4.21875 L 6.371094 -4.21875 C 6.03125 -6.117188 4.691406 -6.570312 3.527344 -6.570312 C 2.039062 -6.570312 0.335938 -5.679688 0.335938 -3.242188 C 0.335938 -0.789062 2.050781 0.0859375 3.542969 0.0859375 C 4.667969 0.0859375 6.105469 -0.386719 6.417969 -2.328125 L 4.78125 -2.328125 C 4.628906 -1.789062 4.316406 -1.390625 3.554688 -1.390625 Z M 3.554688 -1.390625 "/></g></g></g><g fill="#000000" fill-opacity="1"><g transform="translate(100.413297, 27.192191)"><g><path d="M 5.191406 0 L 7.183594 0 L 4.179688 -3.765625 L 6.820312 -6.507812 L 4.753906 -6.507812 L 2.476562 -4.105469 L 2.476562 -8.835938 L 0.652344 -8.835938 L 0.652344 0 L 2.476562 0 L 2.476562 -2.015625 L 3.054688 -2.601562 Z M 5.191406 0 "/></g></g></g><g fill="#000000" fill-opacity="1"><g transform="translate(107.683278, 27.192191)"><g><path d="M 6.65625 -3.015625 C 6.65625 -5.644531 5.167969 -6.570312 3.554688 -6.570312 C 2.050781 -6.570312 0.335938 -5.644531 0.335938 -3.214844 C 0.335938 -0.824219 2.066406 0.0859375 3.542969 0.0859375 C 5.117188 0.0859375 6.105469 -0.550781 6.480469 -1.863281 L 4.894531 -1.863281 C 4.703125 -1.488281 4.328125 -1.265625 3.640625 -1.265625 C 2.753906 -1.265625 2.238281 -1.675781 2.101562 -2.679688 L 6.644531 -2.679688 C 6.65625 -2.789062 6.65625 -2.890625 6.65625 -3.015625 Z M 2.113281 -3.804688 C 2.253906 -4.753906 2.753906 -5.21875 3.554688 -5.21875 C 4.417969 -5.21875 4.894531 -4.65625 4.917969 -3.804688 Z M 2.113281 -3.804688 "/></g></g></g><g fill="#000000" fill-opacity="1"><g transform="translate(114.677975, 27.192191)"><g><path d="M 4.417969 -6.570312 C 3.304688 -6.570312 2.664062 -5.945312 2.476562 -5.066406 L 2.476562 -6.507812 L 0.652344 -6.507812 L 0.652344 0 L 2.476562 0 L 2.476562 -3.464844 C 2.628906 -4.367188 3.214844 -4.929688 4.554688 -4.929688 C 4.640625 -4.929688 4.730469 -4.929688 4.980469 -4.917969 L 4.980469 -6.519531 C 4.730469 -6.570312 4.554688 -6.570312 4.417969 -6.570312 Z M 4.417969 -6.570312 "/></g></g></g></svg>